<svg width="1440" height="1024" viewBox="0 0 1440 1024" fill="none" xmlns="http://www.w3.org/2000/svg">
<g clip-path="url(#clip0)">
<rect width="1440" height="1024" fill="#A4DBE4"/>
<path d="M0.222229 493C590.222 822 976.222 209.191 1440.22 460.191C1904.22 711.191 1440.22 974.191 1440.22 974.191H0.222229C0.222229 974.191 -589.778 164 0.222229 493Z" fill="#F39922"/>
<path d="M0.222229 493C590.222 822 976.222 209.191 1440.22 460.191C1904.22 711.191 1440.22 974.191 1440.22 974.191H0.222229C0.222229 974.191 -589.778 164 0.222229 493Z" fill="#F39922"/>
<path d="M6.10352e-05 510C590 839 976 259 1440 510C1904 761 1440 1024 1440 1024H6.10352e-05C6.10352e-05 1024 -590 181 6.10352e-05 510Z" fill="#5B8D27"/>
<path d="M6.10352e-05 510C590 839 976 259 1440 510C1904 761 1440 1024 1440 1024H6.10352e-05C6.10352e-05 1024 -590 181 6.10352e-05 510Z" fill="#5B8D27"/>
<path d="M38.2222 588.191C628.222 917.191 1054 175 1478.22 588.191C1902.44 1001.38 1478.22 1102.19 1478.22 1102.19H38.2222C38.2222 1102.19 -551.778 259.191 38.2222 588.191Z" fill="#224B0B"/>
<path d="M38.2222 588.191C628.222 917.191 1054 175 1478.22 588.191C1902.44 1001.38 1478.22 1102.19 1478.22 1102.19H38.2222C38.2222 1102.19 -551.778 259.191 38.2222 588.191Z" fill="#224B0B"/>
</g>
<defs>
<clipPath id="clip0">
<rect width="1440" height="1024" fill="white"/>
</clipPath>
</defs>
</svg>
